<?xml version="1.0" encoding="utf-8"?>
<!-- Generator: Adobe Illustrator 16.0.0, SVG Export Plug-In . SVG Version: 6.00 Build 0)  -->
<!DOCTYPE svg PUBLIC "-//W3C//DTD SVG 1.1//EN" "http://www.w3.org/Graphics/SVG/1.1/DTD/svg11.dtd">
<svg version="1.1" id="Capa_1" xmlns="http://www.w3.org/2000/svg" xmlns:xlink="http://www.w3.org/1999/xlink" x="0px" y="0px"
	 width="626px" height="230px" viewBox="0 0 626 230" enable-background="new 0 0 626 230"
	 xml:space="preserve">
<g>
	<path fill="#030232" d="M0,0c210.529,0.265,415.486,0,626.016,0c0,85.333,0,144.749,0,230.082c-210.529,0-415.487-0.265-626.016,0
		c30.059-0.035-0.005,1.561,0,0C0.287,150.468,0.287,79.615,0,0 M58.259,224.261c13.181,0.499,25.895-1.577,38.056-6.78
		c20.608-8.816,32.269-24.346,33.615-46.722c1.201-19.981-10.15-32.981-26.117-42.795c-8.786-5.399-18.141-10.003-26.397-16.104
		c-11.056-8.171-9.373-19.904,3.09-25.964c9.398-4.569,19.168-3.896,29.281-2.663c6.785,0.827,14.176,8.052,19.164,3.774
		c4.893-4.195,5.414-13.231,8.537-19.819c3.125-6.593,0.952-9.375-5.512-11.405c-21.745-6.832-43.438-7.09-64.652,1.179
		c-20.892,8.143-34.322,23.283-35.598,46.316c-1.136,20.494,11.764,33.031,27.971,42.769c7.417,4.457,15.147,8.411,22.407,13.104
		c6.152,3.976,10.488,9.471,9.155,17.492c-1.37,8.242-7.197,12.354-14.539,14.885c-11.568,3.988-22.924,1.606-34.482-0.496
		c-6.948-1.266-13.832-9.67-19.689-4.963c-5.008,4.025-5.511,13.268-9.042,19.625c-3.632,6.539-0.392,8.925,4.796,11.072
		C31.101,222.066,44.407,224.652,58.259,224.261z M415.279,220.393c18.522-1.091,18.59-1.123,27.477-17.86
		c12.33-23.216,24.66-46.431,36.961-69.661c18.531-34.995,37.031-70.005,55.56-105.001c2.17-4.097,3.588-8.151-1.088-11.475
		c-4.662-3.315-9.08-2.048-12.425,1.914c-3.848,4.554-7.313,9.472-10.569,14.476c-27.414,42.123-54.734,84.308-82.121,126.449
		c-1.4,2.156-2.342,5.736-5.322,5.33c-3.612-0.494-3.301-4.491-4.049-7.265c-4.935-18.3-9.656-36.657-14.777-54.904
		c-2.483-8.855-9.026-11.997-17.769-10.338c-8.809,1.672-9.26,8.02-8.25,15.321c4.326,31.301,8.449,62.629,12.763,93.932
		C394.039,218.527,397.748,221.426,415.279,220.393z M205.572,224.295c8.674-0.066,17.34-0.49,25.696-2.973
		c21.198-6.293,18.313-3.277,16.266-25.956c-0.481-5.325-2.718-5.688-7.217-3.866c-10.628,4.303-21.759,6.154-33.229,4.88
		c-8.263-0.918-15.501-3.889-19.7-11.712c-4.396-8.188-3.127-10.548,5.956-10.475c17.102,0.138,33.992-1.25,49.828-8.193
		c14.985-6.572,22.326-18.691,21.437-33.843c-0.867-14.771-10.117-25.87-25.675-30.809c-38.845-12.333-80.679,15.938-87.677,59.25
		C144.83,200.377,165.595,224.734,205.572,224.295z M315.285,224.314c19.266-0.119,19.262-0.121,22.195-18.836
		c0.258-1.642,0.498-3.295,0.901-4.902c1.312-5.206-0.368-6.863-5.963-6.887c-12.168-0.051-14.828-3.08-12.946-15.225
		c2.135-13.781,5.498-27.371,7.789-41.134c1.088-6.531,3.987-8.569,10.579-8.492c17.945,0.212,17.949-0.101,21.099-17.916
		c0.057-0.327,0.026-0.682,0.139-0.986c2.646-7.222-0.297-8.798-7.328-8.684c-17.125,0.278-17.131-0.057-13.848-17.173
		c3.266-17.022,3.41-15.954-14.019-13.595c-14.971,2.027-23.801,7.69-23.569,23.786c0.064,4.468-1.758,8.126-7.161,7.083
		c-9.053-1.748-11.736,2.897-11.979,10.842c-0.091,2.947-0.837,5.945-1.719,8.783c-1.932,6.219,0.13,8.842,6.597,8.026
		c6.592-0.831,7.587,1.64,6.177,7.988c-3.744,16.854-7.228,33.819-9.603,50.911C279.063,213.559,289.28,224.475,315.285,224.314z
		 M590.789,162.259c4.998,0,10.012,0.253,14.992-0.053c10.198-0.627,9.389-9.424,10.084-15.72c0.666-6.014-5.047-6.854-9.945-6.9
		c-6.998-0.066-14.031-0.449-20.984,0.111c-7.604,0.611-10.45-1.389-8.112-9.422c2.131-7.319,3.231-14.943,4.692-22.451
		c0.875-4.503,4.724-10-3.387-11.919c-10.207-2.414-16.51,0.125-18.396,7.834c-2.295,9.374-4.539,18.805-5.927,28.338
		c-0.862,5.928-3.317,7.843-9.071,7.604c-8.982-0.373-18.009-0.443-26.982-0.008c-7.02,0.342-10.934,7.348-10.258,16.68
		c0.529,7.289,5.938,5.83,10.387,5.896c7.664,0.116,15.332,0.165,22.992-0.025c4.941-0.121,6.506,1.437,5.17,6.547
		c-2.1,8.035-3.568,16.24-5.207,24.394c-2.648,13.167-1.498,14.162,11.943,13.827c6.875-0.172,9.356-3.754,10.375-9.674
		c0.846-4.92,1.899-9.803,2.885-14.697C570.123,162.277,570.126,162.277,590.789,162.259z"/>
	<path fill="#F6F6F8" d="M58.269,224.257c-13.861,0.396-27.168-2.19-39.967-7.491c-5.188-2.147-8.428-4.533-4.796-11.072
		c3.531-6.357,4.034-15.6,9.042-19.625c5.857-4.707,12.741,3.697,19.689,4.963c11.559,2.104,22.914,4.484,34.482,0.496
		c7.342-2.531,13.169-6.643,14.539-14.885c1.333-8.021-3.003-13.518-9.155-17.492c-7.26-4.691-14.99-8.646-22.407-13.104
		c-16.207-9.738-29.106-22.275-27.971-42.769C33,80.245,46.431,65.104,67.323,56.962c21.215-8.269,42.907-8.011,64.652-1.179
		c6.464,2.03,8.637,4.813,5.512,11.405c-3.123,6.588-3.645,15.624-8.537,19.819c-4.988,4.277-12.379-2.947-19.164-3.774
		C99.673,82,89.903,81.328,80.505,85.897c-12.463,6.06-14.146,17.793-3.09,25.964c8.257,6.101,17.611,10.704,26.397,16.104
		c15.967,9.813,27.318,22.813,26.117,42.795c-1.347,22.377-13.007,37.904-33.615,46.721
		C84.153,222.684,71.439,224.76,58.269,224.257z"/>
	<path fill="#D9691A" d="M415.279,220.393c-17.531,1.033-21.24-1.865-23.611-19.082c-4.313-31.303-8.436-62.631-12.762-93.932
		c-1.01-7.302-0.559-13.649,8.25-15.321c8.74-1.659,15.283,1.482,17.768,10.338c5.121,18.247,9.844,36.604,14.777,54.904
		c0.748,2.772,0.436,6.771,4.049,7.265c2.98,0.406,3.922-3.174,5.322-5.33c27.387-42.143,54.707-84.326,82.121-126.449
		c3.258-5.004,6.723-9.922,10.569-14.476c3.345-3.962,7.763-5.229,12.424-1.914c4.677,3.323,3.259,7.378,1.089,11.475
		c-18.527,34.996-37.027,70.006-55.56,105.001c-12.301,23.23-24.631,46.445-36.961,69.661
		C433.869,219.27,433.802,219.302,415.279,220.393z"/>
	<path fill="#F6F6F8" d="M205.572,224.295c-39.978,0.439-60.742-23.918-54.315-63.697c6.998-43.312,48.832-71.582,87.677-59.249
		c15.558,4.938,24.808,16.04,25.675,30.809c0.89,15.15-6.451,27.271-21.437,33.843c-15.836,6.942-32.727,8.331-49.828,8.192
		c-9.083-0.072-10.353,2.287-5.956,10.476c4.199,7.823,11.438,10.794,19.7,11.712c11.471,1.273,22.602-0.576,33.229-4.88
		c4.499-1.821,6.735-1.459,7.217,3.866c2.047,22.679,4.933,19.662-16.266,25.956C222.912,223.805,214.246,224.229,205.572,224.295z
		 M198.735,148.107c8.427-1.254,17.238-0.881,25.27-4.614c4.161-1.935,7.264-5.019,6.612-10.046
		c-0.594-4.574-4.089-6.477-8.185-7.621c-9.704-2.713-21.681,1.89-28.884,11.436c-1.95,2.586-5.069,5.495-3.819,8.754
		C191.269,150.027,195.655,147.048,198.735,148.107z"/>
	<path fill="#F6F6F8" d="M315.285,224.314c-26.004,0.16-36.221-10.756-32.658-36.408c2.375-17.092,5.858-34.059,9.603-50.911
		c1.41-6.351,0.415-8.819-6.177-7.988c-6.467,0.815-8.528-1.809-6.597-8.026c0.882-2.838,1.628-5.835,1.719-8.782
		c0.243-7.944,2.927-12.59,11.979-10.842c5.403,1.043,7.226-2.615,7.161-7.083c-0.232-16.096,8.598-21.759,23.569-23.786
		c17.429-2.359,17.283-3.428,14.019,13.595c-3.283,17.116-3.277,17.451,13.848,17.173c7.031-0.114,9.975,1.462,7.328,8.684
		c-0.111,0.305-0.082,0.659-0.139,0.986c-3.148,17.815-3.152,18.128-21.099,17.916c-6.592-0.077-9.491,1.961-10.579,8.492
		c-2.291,13.763-5.654,27.353-7.789,41.134c-1.882,12.145,0.778,15.174,12.946,15.225c5.595,0.022,7.272,1.681,5.963,6.887
		c-0.403,1.607-0.646,3.262-0.901,4.902C334.546,224.193,334.55,224.195,315.285,224.314z"/>
	<path fill="#F6F6F8" d="M590.789,162.27c-20.662,0.008-20.666,0.008-24.75,20.352c-0.984,4.895-2.039,9.777-2.885,14.697
		c-1.019,5.92-3.5,9.502-10.375,9.674c-13.441,0.335-14.593-0.66-11.943-13.827c1.639-8.153,3.107-16.356,5.207-24.394
		c1.336-5.11-0.229-6.668-5.17-6.547c-7.66,0.19-15.328,0.143-22.992,0.025c-4.447-0.066-9.856,1.393-10.387-5.896
		c-0.676-9.332,3.238-16.338,10.258-16.68c8.975-0.438,18-0.365,26.982,0.008c5.754,0.238,8.209-1.677,9.071-7.604
		c1.388-9.533,3.631-18.964,5.927-28.338c1.887-7.709,8.188-10.248,18.396-7.834c8.109,1.919,4.262,7.416,3.387,11.919
		c-1.461,7.508-2.563,15.132-4.692,22.451c-2.338,8.033,0.508,10.033,8.112,9.422c6.953-0.562,13.986-0.178,20.984-0.111
		c4.898,0.047,10.611,0.887,9.945,6.9c-0.695,6.296,0.115,15.093-10.084,15.72C600.8,162.512,595.787,162.259,590.789,162.27z"/>
	<path fill="#030232" d="M198.735,148.107c-3.08-1.06-7.467,1.92-9.006-2.094c-1.25-3.258,1.869-6.168,3.819-8.753
		c7.203-9.546,19.18-14.147,28.884-11.436c4.096,1.146,7.591,3.047,8.185,7.62c0.651,5.027-2.451,8.111-6.612,10.047
		C215.974,147.227,207.162,146.854,198.735,148.107z"/>
</g>
</svg>
